<svg width="85" height="88" viewBox="0 0 85 88" fill="none" xmlns="http://www.w3.org/2000/svg">
<path d="M2.62684 60.2183C4.95882 41.1469 14.6793 35.0297 23.3831 29.6095C32.2707 24.0724 39.9578 19.2228 39.033 1.00146C34.9789 1.2912 30.9873 2.16033 27.1797 3.58235C27.5665 18.0434 20.716 22.3321 14.0685 26.4734C7.04766 30.8463 0.415469 34.978 0 51.2828C0.555235 54.3864 1.43787 57.3827 2.62684 60.2183Z" fill="url(#paint0_linear_45_183)"/>
<path d="M12.043 23.2223C18.2387 19.3606 23.2492 16.2015 23.3622 5.22697C12.0851 10.7544 3.5843 21.0952 0.541992 33.5555C3.66471 28.4454 8.00512 25.7362 12.043 23.2223ZM13.1745 75.2249C14.6833 54.8995 23.6015 47.8059 32.2498 40.9382C41.6447 33.4789 50.5227 26.4101 50.023 1.6122C47.6579 1.17235 45.2601 0.932176 42.8547 0.894226C43.8465 21.3058 34.4937 27.199 25.407 32.8585C16.2015 38.5928 6.70127 44.5453 5.96989 66.5958C7.98452 69.7743 10.4067 72.6753 13.1745 75.2249ZM59.0312 52.8776C67.6125 45.9908 75.7074 39.4352 75.2747 16.5825C72.9613 13.7666 70.3005 11.2551 67.3559 9.10788C67.2353 34.0743 57.5302 41.8782 48.1237 49.4256C39.2706 56.5307 30.9134 63.2529 30.3007 84.8745C33.8312 85.8892 37.5436 86.4655 41.3805 86.5345C42.3895 66.2914 50.8348 59.4581 59.0312 52.8776Z" fill="url(#paint1_linear_45_183)"/>
<path d="M57.7847 57.0656C61.0565 54.0665 70.3711 56.7832 77.1224 52.4614C81.7718 49.4851 85.1125 40.992 84.8033 33.8109L85.0005 33.8032C83.9978 29.8819 82.4402 26.1238 80.3748 22.643C79.4692 43.0718 66.0194 50.4564 57.7847 57.0656C50.4179 62.5907 47.5394 68.8137 46.561 87.1058C50.7382 86.8103 54.849 85.9006 58.7608 84.4062C49.9575 69.0366 49.9575 62.1302 57.7847 57.0656ZM47.0665 47.1174C56.4767 39.5681 65.3682 32.417 64.8474 7.28211C61.8153 5.52968 58.5788 4.15742 55.2112 3.19635C55.485 29.1201 45.5673 36.9929 35.9675 44.615C27.2254 51.5554 18.9754 58.1493 18.1885 78.9285C21.1723 81.1203 24.4282 82.9153 27.8745 84.2683C28.8203 61.8196 38.0831 54.3259 47.0665 47.1174Z" fill="url(#paint2_linear_45_183)"/>
<path d="M68.1099 57.6406L75.7499 60.2039C76.6051 60.4895 77.1833 61.2751 77.188 62.1555L77.2366 69.7993C77.2517 72.1165 76.4069 74.3638 74.8599 76.1246C74.1484 76.9328 73.2364 77.627 72.0718 78.2478L67.965 80.4432C67.8364 80.5109 67.695 80.5459 67.5525 80.547C67.4099 80.5481 67.2674 80.5143 67.1399 80.4477L62.9949 78.3031C61.8175 77.6925 60.8974 77.0084 60.179 76.2116C58.6065 74.4688 57.7327 72.2317 57.7177 69.911L57.669 62.2729C57.6644 61.3914 58.2322 60.6001 59.0827 60.3033L66.6938 57.6485C67.1457 57.4882 67.6498 57.4848 68.1099 57.6406ZM71.7634 65.8351C71.4215 65.5066 70.8711 65.5089 70.5339 65.8418L66.6565 69.6637L65.0689 68.1377C64.7271 67.8092 64.1778 67.8126 63.8394 68.1456C63.5022 68.4785 63.5057 69.0136 63.8475 69.342L66.0527 71.464C66.2243 71.6288 66.4467 71.7101 66.6692 71.7079C66.8917 71.7067 67.1131 71.6232 67.2822 71.4561L71.7703 67.0315C72.1075 66.6985 72.104 66.1635 71.7634 65.8351Z" fill="#242424"/>
<defs>
<linearGradient id="paint0_linear_45_183" x1="10.5682" y1="16.9703" x2="37.4085" y2="18.9106" gradientUnits="userSpaceOnUse">
<stop stop-color="#4B9F85"/>
<stop offset="1" stop-color="#3A5A65"/>
</linearGradient>
<linearGradient id="paint1_linear_45_183" x1="20.7412" y1="23.9886" x2="71.8434" y2="28.8709" gradientUnits="userSpaceOnUse">
<stop stop-color="#4B9F85"/>
<stop offset="1" stop-color="#3A5A65"/>
</linearGradient>
<linearGradient id="paint2_linear_45_183" x1="36.2428" y1="25.824" x2="81.9881" y2="29.811" gradientUnits="userSpaceOnUse">
<stop stop-color="#4B9F85"/>
<stop offset="1" stop-color="#3A5A65"/>
</linearGradient>
</defs>
</svg>
